<svg width="288" height="288" xmlns="http://www.w3.org/2000/svg">

 <g>
  <title>background</title>
  <rect fill="none" id="canvas_background" height="402" width="582" y="-1" x="-1"/>
 </g>
 <g>
  <title>Layer 1</title>
  <path fill="#1e272e" id="svg_1" d="m144,174c-17,0 -34,7 -45,20c-10,12 -28,-4 -18,-16c16,-18 39,-28 63,-28s47,10 63,28c10,12 -8,28 -18,16c-11,-13 -28,-20 -45,-20zm0,84c-13,0 -24,-11 -24,-24s11,-24 24,-24s24,11 24,24s-11,24 -24,24zm0,-144c-32,0 -61,11 -84,34c-10,10 -29,-5 -17,-17c27,-27 63,-41 101,-41s74,14 101,41c12,12 -7,27 -17,17c-23,-23 -52,-34 -84,-34zm0,-60c-46,0 -89,17 -122,48c-12,11 -29,-6 -17,-17c39,-36 87,-55 139,-55s100,19 139,55c12,11 -5,28 -17,17c-33,-31 -76,-48 -122,-48z"/>
 </g>
</svg>